<?xml version="1.0" encoding="utf-8"?>
<!-- Generator: Adobe Illustrator 22.1.0, SVG Export Plug-In . SVG Version: 6.00 Build 0)  -->
<svg version="1.1" id="Layer_1" xmlns="http://www.w3.org/2000/svg" xmlns:xlink="http://www.w3.org/1999/xlink" x="0px" y="0px"
	 viewBox="0 0 24.8 10" style="enable-background:new 0 0 24.8 10;" xml:space="preserve">
<style type="text/css">
	.st0{fill:#1F70C1;}
</style>
<path id="rect7" class="st0" d="M0,0v0.7h4.8V0H0z M5.5,0v0.7h6.9c0,0-0.7-0.7-1.6-0.7H5.5z M13.7,0v0.7h4.2L17.7,0H13.7z M20.9,0
	l-0.2,0.7h4.1V0H20.9z M0,1.3V2h4.8V1.3H0z M5.5,1.3V2h7.7c0,0-0.1-0.5-0.2-0.7H5.5z M13.7,1.3V2h4.6l-0.2-0.7H13.7z M20.4,1.3
	L20.2,2h4.6V1.3H20.4z M1.4,2.7v0.7h2.1V2.7H1.4z M6.9,2.7v0.7H9V2.7H6.9z M11,2.7v0.7h2.1c0,0,0.1-0.4,0.1-0.7H11z M15.1,2.7v0.7
	h3.7l-0.2-0.7H15.1z M19.9,2.7l-0.2,0.7h3.7V2.7H19.9z M1.4,4v0.7h2.1V4H1.4z M6.9,4v0.7h5.3c0,0,0.4-0.4,0.6-0.7H6.9z M15.1,4v0.7
	h2.1V4.3l0.1,0.4h3.8l0.1-0.4v0.4h2.1V4h-3.9l-0.2,0.6L19.1,4H15.1z M1.4,5.3V6h2.1V5.3H1.4z M6.9,5.3V6h5.9
	c-0.1-0.3-0.6-0.7-0.6-0.7H6.9z M15.1,5.3V6h2.1V5.3H15.1z M17.6,5.3L17.9,6h2.9L21,5.3H17.6z M21.3,5.3V6h2.1V5.3H21.3z M1.4,6.7
	v0.7h2.1V6.7H1.4z M6.9,6.7v0.7H9V6.7H6.9z M11,6.7v0.7h2.2c0-0.3-0.1-0.7-0.1-0.7H11z M15.1,6.7v0.7h2.1V6.7H15.1z M18.1,6.7
	l0.2,0.7h1.9l0.2-0.7H18.1z M21.3,6.7v0.7h2.1V6.7H21.3z M0,8v0.7h4.8V8H0z M5.5,8v0.7h7.4C13.1,8.5,13.2,8,13.2,8H5.5z M13.8,8v0.7
	h3.4V8H13.8z M18.6,8l0.3,0.7h1L20,8H18.6z M21.3,8v0.7h3.5V8H21.3z M0,9.3V10h4.8V9.3H0z M5.5,9.3V10h5.2c0.9,0,1.6-0.7,1.6-0.7
	H5.5z M13.8,9.3V10h3.4V9.3H13.8z M19,9.3l0.2,0.7l0,0l0.2-0.7H19z M21.3,9.3V10h3.5V9.3H21.3z"/>
</svg>
